<svg width="22" height="16" viewBox="0 0 22 16" fill="none" xmlns="http://www.w3.org/2000/svg">
<path d="M11.0003 0.664062C5.0378 0.664062 0.201416 3.76095 0.201416 7.57174C0.201416 11.3825 5.0378 14.7811 11.0003 14.7811C16.9628 14.7811 21.7992 11.3926 21.7992 7.57174C21.7992 3.7509 16.9628 0.664062 11.0003 0.664062Z" fill="#00BCFF"/>
<path d="M7.47985 5.44166C7.46979 5.45172 7.36925 5.56232 7.43963 5.65281C7.61056 5.86396 8.12336 5.98462 8.64621 5.87402C8.95791 5.80364 9.35005 5.49194 9.74219 5.18024C10.1645 4.84843 10.5767 4.51662 10.989 4.3859C11.4314 4.24514 11.7129 4.30546 11.904 4.36579C12.1051 4.42612 12.3464 4.56689 12.7385 4.84842C13.4625 5.39139 16.3683 7.93526 16.8811 8.36762C17.2833 8.18663 19.2139 7.40236 21.6572 6.86945C21.446 5.56232 20.6617 4.32557 19.4552 3.35025C17.776 4.05409 15.5941 4.4764 13.5831 3.50108C13.5731 3.50108 12.4872 2.98828 11.4213 3.00839C9.83268 3.04861 9.1389 3.73234 8.41495 4.46634L7.47985 5.44166Z" fill="white"/>
<path d="M16.7512 8.63838C16.721 8.60822 13.3325 5.64204 12.5583 5.06891C12.1159 4.7371 11.8645 4.64661 11.6031 4.61645C11.4724 4.59634 11.2813 4.6265 11.1506 4.65666C10.7886 4.75721 10.3261 5.06891 9.91387 5.39067C9.48151 5.73253 9.07932 6.05429 8.70729 6.13473C8.22465 6.24533 7.64147 6.11462 7.36999 5.93363C7.25939 5.86325 7.189 5.77275 7.14879 5.69232C7.04824 5.46105 7.22922 5.28006 7.25939 5.2499L8.19449 4.23436C8.30509 4.12376 8.4157 4.01315 8.5263 3.91261C8.22465 3.95283 7.94312 4.03326 7.67164 4.10365C7.32977 4.19414 7.00802 4.28464 6.67621 4.28464C6.53544 4.28464 5.80144 4.16398 5.66067 4.12376C4.81606 3.8925 3.8508 3.67129 2.74476 3.14844C1.41752 4.13381 0.552808 5.35045 0.291382 6.71791C0.482424 6.76818 0.985166 6.87878 1.11588 6.90895C4.12228 7.58262 5.05738 8.26636 5.22831 8.40712C5.4093 8.20603 5.68078 8.07531 5.97237 8.07531C6.30418 8.07531 6.60582 8.24624 6.78681 8.49762C6.95774 8.35685 7.19906 8.24624 7.50071 8.24624C7.64147 8.24624 7.78224 8.27641 7.93306 8.31663C8.27493 8.43728 8.44586 8.65849 8.53635 8.85959C8.64696 8.80932 8.78773 8.76909 8.95866 8.76909C9.11954 8.76909 9.29047 8.80932 9.4614 8.8797C10.0144 9.12102 10.1049 9.66398 10.0546 10.0762C10.0949 10.0762 10.1351 10.0662 10.1753 10.0662C10.8289 10.0662 11.3718 10.5991 11.3718 11.2627C11.3718 11.4638 11.3215 11.6548 11.2311 11.8258C11.412 11.9263 11.8645 12.1576 12.2667 12.1073C12.5885 12.0671 12.7091 11.9565 12.7493 11.8962C12.7795 11.8559 12.8097 11.8057 12.7795 11.7654L11.9349 10.8203C11.9349 10.8203 11.7941 10.6896 11.8444 10.6393C11.8947 10.589 11.9751 10.6594 12.0354 10.7097C12.4678 11.0717 12.9907 11.6146 12.9907 11.6146C13.0007 11.6247 13.0309 11.685 13.232 11.7252C13.4029 11.7554 13.6945 11.7353 13.9056 11.5643C13.9559 11.5241 14.0062 11.4638 14.0565 11.4135L14.0464 11.4236C14.2676 11.142 14.0263 10.8605 14.0263 10.8605L13.0309 9.74442C13.0309 9.74442 12.8901 9.6137 12.9404 9.56343C12.9806 9.51316 13.0711 9.58354 13.1415 9.63381C13.4532 9.89524 13.8956 10.3377 14.3279 10.76C14.4084 10.8203 14.7804 11.0515 15.2832 10.7298C15.5848 10.5287 15.6451 10.2874 15.6351 10.1064C15.615 9.86508 15.4239 9.69414 15.4239 9.69414L14.0665 8.33674C14.0665 8.33674 13.9258 8.21608 13.976 8.15575C14.0162 8.10548 14.1067 8.17586 14.1671 8.22613C14.5994 8.58811 15.7658 9.65392 15.7658 9.65392C15.7859 9.66398 16.1881 9.95557 16.6808 9.63381C16.8618 9.52321 16.9724 9.35228 16.9824 9.15118C16.9925 8.83948 16.7512 8.63838 16.7512 8.63838Z" fill="white"/>
<path d="M10.1865 10.3564C9.97537 10.3564 9.7441 10.477 9.71394 10.4569C9.69383 10.4469 9.72399 10.3664 9.7441 10.3162C9.76421 10.2659 10.0357 9.44139 9.37207 9.1498C8.85928 8.92859 8.53752 9.17996 8.43697 9.29057C8.40681 9.32073 8.39675 9.32073 8.39675 9.28051C8.3867 9.12969 8.31632 8.7275 7.8739 8.58673C7.24045 8.39569 6.8282 8.8381 6.72765 8.99898C6.67738 8.637 6.37573 8.35547 6.0037 8.35547C5.59145 8.35547 5.2697 8.68728 5.25964 9.08947C5.25964 9.50172 5.59145 9.82347 5.99365 9.82347C6.19474 9.82347 6.37573 9.74303 6.50644 9.62238C6.50644 9.62238 6.5165 9.63243 6.50644 9.64249C6.47628 9.82347 6.41595 10.4871 7.10973 10.7586C7.39127 10.8692 7.62253 10.7887 7.82363 10.648C7.88396 10.6078 7.89401 10.6279 7.88396 10.6781C7.85379 10.8491 7.89401 11.211 8.40681 11.4222C8.79895 11.5831 9.03021 11.4222 9.18103 11.2814C9.25142 11.2211 9.26147 11.2312 9.27153 11.3216C9.29164 11.8143 9.70389 12.2065 10.1966 12.2065C10.7094 12.2065 11.1216 11.7942 11.1216 11.2814C11.1116 10.7787 10.6993 10.3664 10.1865 10.3564Z" fill="white"/>
<path d="M11 0.382812C4.92687 0.382812 0 3.61042 0 7.58208C0 7.68263 0 7.96417 0 8.00439C0 12.2073 4.30347 15.6159 11 15.6159C17.6965 15.6159 22 12.2073 22 8.00439V7.58208C22 3.61042 17.0731 0.382812 11 0.382812ZM21.4973 6.77769C19.1042 7.3106 17.3245 8.08482 16.872 8.27587C15.8263 7.36087 13.4132 5.26947 12.7596 4.77678C12.3876 4.49524 12.1362 4.34442 11.9049 4.28409C11.8044 4.25393 11.6636 4.22376 11.4826 4.22376C11.3117 4.22376 11.1408 4.25393 10.9497 4.31426C10.5274 4.44497 10.1051 4.78683 9.70292 5.10859V5.11864C9.32084 5.42029 8.9287 5.73199 8.63711 5.80237C8.5064 5.83254 8.37569 5.8426 8.24497 5.8426C7.91316 5.8426 7.61152 5.74204 7.50091 5.60128C7.4808 5.58117 7.49086 5.54095 7.54113 5.48062L7.55119 5.47056L8.46618 4.48519C9.19013 3.76124 9.8638 3.08757 11.4324 3.04735C11.4625 3.04735 11.4826 3.04735 11.5128 3.04735C12.4881 3.04735 13.4634 3.47971 13.564 3.52998C14.479 3.97239 15.4141 4.20365 16.3693 4.20365C17.3547 4.20365 18.3702 3.96234 19.436 3.46965C20.532 4.41481 21.2761 5.551 21.4973 6.77769ZM11 0.805117C14.2276 0.805117 17.1133 1.73016 19.0539 3.18811C18.1188 3.59031 17.2239 3.80146 16.3592 3.80146C15.4744 3.80146 14.5896 3.59031 13.7349 3.16801C13.6947 3.1479 12.6188 2.6351 11.4927 2.6351C11.4625 2.6351 11.4324 2.6351 11.4022 2.6351C10.085 2.66526 9.35101 3.12778 8.84826 3.54003C8.36563 3.55009 7.94333 3.67075 7.5713 3.7713C7.23949 3.86179 6.95795 3.94223 6.67642 3.94223C6.56581 3.94223 6.35466 3.93217 6.33455 3.93217C6.0128 3.92212 4.40402 3.52998 3.117 3.04735C5.06764 1.66983 7.87294 0.805117 11 0.805117ZM2.75503 3.32888C4.09232 3.8819 5.72121 4.3042 6.24406 4.33437C6.38483 4.34442 6.53565 4.36453 6.69653 4.36453C7.03839 4.36453 7.38026 4.26398 7.71207 4.17349C7.90311 4.12322 8.12431 4.06289 8.34552 4.01261C8.28519 4.07294 8.22486 4.13327 8.16453 4.1936L7.22943 5.19908C7.15905 5.26947 6.99817 5.47056 7.09872 5.71188C7.13894 5.81243 7.22943 5.90292 7.34004 5.98336C7.56124 6.13418 7.96344 6.23473 8.32541 6.23473C8.46618 6.23473 8.59689 6.22468 8.71755 6.19451C9.10969 6.10402 9.52194 5.78227 9.9543 5.43035C10.2962 5.15886 10.7888 4.80694 11.1709 4.7064C11.2815 4.67623 11.4022 4.65612 11.5128 4.65612C11.543 4.65612 11.5731 4.65612 11.6033 4.66618C11.8547 4.69634 12.096 4.78683 12.5183 5.10859C13.2824 5.68172 16.6709 8.64789 16.7011 8.67806C16.7011 8.67806 16.9223 8.8691 16.9022 9.1808C16.8921 9.35173 16.8016 9.50256 16.6307 9.61316C16.4899 9.70366 16.3391 9.75393 16.1883 9.75393C15.957 9.75393 15.8062 9.64332 15.7962 9.64332C15.7861 9.63327 14.6197 8.56746 14.1974 8.20548C14.1271 8.14515 14.0667 8.09488 13.9963 8.09488C13.9561 8.09488 13.926 8.11499 13.9059 8.1351C13.8355 8.21554 13.9159 8.3362 14.0064 8.40658L15.3638 9.77404C15.3638 9.77404 15.5347 9.93492 15.5548 10.1461C15.5649 10.3673 15.4543 10.5583 15.2331 10.7091C15.0722 10.8197 14.9113 10.87 14.7505 10.87C14.5393 10.87 14.3985 10.7795 14.3684 10.7494L14.1773 10.5583C13.8254 10.2064 13.4534 9.84442 13.1819 9.62321C13.1115 9.57294 13.0512 9.52267 12.9808 9.52267C12.9506 9.52267 12.9205 9.53272 12.8903 9.56289C12.8601 9.59305 12.84 9.65338 12.9104 9.76398C12.9406 9.8042 12.9808 9.84442 12.9808 9.84442L13.9662 10.9605C13.9762 10.9706 14.1673 11.2018 13.9863 11.4331L13.9461 11.4733C13.9159 11.5035 13.8857 11.5336 13.8556 11.5638C13.6846 11.7046 13.4634 11.7146 13.3729 11.7146C13.3227 11.7146 13.2824 11.7146 13.2422 11.7046C13.1417 11.6845 13.0814 11.6643 13.0512 11.6241L13.0411 11.6141C12.9909 11.5537 12.4881 11.051 12.0759 10.7091C12.0256 10.6589 11.9552 10.6086 11.8848 10.6086C11.8547 10.6086 11.8245 10.6186 11.7943 10.6488C11.7139 10.7393 11.8346 10.87 11.8848 10.9203L12.7294 11.8554C12.7294 11.8654 12.7194 11.8856 12.6993 11.9157C12.6691 11.9559 12.5686 12.0565 12.2569 12.0967C12.2166 12.0967 12.1865 12.1068 12.1463 12.1068C11.8346 12.1068 11.4927 11.9559 11.3218 11.8654C11.4022 11.6945 11.4424 11.5135 11.4424 11.3325C11.4424 10.6388 10.8793 10.0757 10.1856 10.0757C10.1755 10.0757 10.1554 10.0757 10.1453 10.0757C10.1654 9.75393 10.1252 9.16069 9.50183 8.88921C9.32084 8.80877 9.14991 8.76855 8.97898 8.76855C8.84826 8.76855 8.71755 8.78866 8.59689 8.83894C8.46618 8.58757 8.25503 8.40658 7.98355 8.31608C7.83272 8.26581 7.6819 8.23565 7.53108 8.23565C7.26965 8.23565 7.03839 8.31609 6.82724 8.45685C6.62614 8.20548 6.3245 8.05466 6.00274 8.05466C5.72121 8.05466 5.44973 8.16526 5.24863 8.36636C4.9872 8.16526 3.9415 7.50164 1.15631 6.86819C1.02559 6.83802 0.723949 6.74753 0.532907 6.69726C0.774223 5.42029 1.56856 4.27404 2.75503 3.32888ZM7.92322 10.5985L7.89305 10.5684H7.86289C7.84278 10.5684 7.81261 10.5784 7.78245 10.5985C7.64168 10.6991 7.50091 10.7494 7.3702 10.7494C7.28976 10.7494 7.21938 10.7292 7.13894 10.7091C6.49543 10.4578 6.5457 9.84442 6.57587 9.66344C6.57587 9.62322 6.57587 9.59305 6.5457 9.57294L6.49543 9.53272L6.45521 9.57294C6.3245 9.6936 6.16362 9.76398 5.99269 9.76398C5.62066 9.76398 5.31901 9.46234 5.31901 9.09031C5.31901 8.71828 5.62066 8.41663 5.99269 8.41663C6.3245 8.41663 6.61609 8.66801 6.65631 8.99982L6.67642 9.1808L6.77697 9.02998C6.78702 9.00987 7.0585 8.59762 7.56124 8.59762C7.65174 8.59762 7.75229 8.61773 7.85283 8.6479C8.25503 8.76855 8.31536 9.13053 8.32541 9.28135C8.33547 9.37184 8.39579 9.37184 8.40585 9.37184C8.43601 9.37184 8.46618 9.35173 8.48629 9.33162C8.55667 9.25119 8.72761 9.12047 8.97898 9.12047C9.09964 9.12047 9.22029 9.15064 9.35101 9.20091C9.98446 9.47239 9.69287 10.2768 9.69287 10.2868C9.6426 10.4175 9.63254 10.4779 9.68282 10.508L9.70292 10.5181H9.72303C9.7532 10.5181 9.78336 10.508 9.84369 10.4879C9.93419 10.4578 10.0548 10.4175 10.1856 10.4175C10.6581 10.4276 11.0503 10.8097 11.0503 11.2823C11.0503 11.7548 10.6581 12.147 10.1856 12.147C9.72303 12.147 9.34095 11.785 9.32084 11.3225C9.32084 11.2823 9.31079 11.1817 9.23035 11.1817C9.19013 11.1817 9.15996 11.2018 9.1298 11.232C9.02925 11.3225 8.89854 11.423 8.7075 11.423C8.617 11.423 8.52651 11.4029 8.42596 11.3627C7.93327 11.1616 7.92322 10.8298 7.94333 10.689C7.94333 10.6589 7.95338 10.6287 7.92322 10.5985ZM11 14.3389C5.15813 14.3389 0.422304 11.3124 0.422304 7.57203C0.422304 7.4212 0.432358 7.27038 0.452468 7.11956C0.502742 7.12961 0.965265 7.24022 1.05576 7.26033C3.90128 7.89378 4.84644 8.54735 5.00731 8.67806C4.95704 8.80877 4.92687 8.94954 4.92687 9.09031C4.92687 9.68354 5.40951 10.1561 5.99269 10.1561C6.06307 10.1561 6.1234 10.1461 6.19378 10.136C6.28428 10.5684 6.56581 10.9002 6.99817 11.0711C7.12888 11.1214 7.24954 11.1415 7.38026 11.1415C7.46069 11.1415 7.54113 11.1314 7.62157 11.1113C7.70201 11.3124 7.883 11.5638 8.28519 11.7347C8.42596 11.7951 8.56673 11.8252 8.7075 11.8252C8.8181 11.8252 8.9287 11.8051 9.02925 11.7649C9.22029 12.2375 9.68282 12.5492 10.1956 12.5492C10.5375 12.5492 10.8592 12.4084 11.1005 12.1671C11.3016 12.2777 11.734 12.4888 12.1664 12.4888C12.2267 12.4888 12.277 12.4888 12.3272 12.4788C12.7596 12.4285 12.9607 12.2576 13.0512 12.1269C13.0713 12.1068 13.0814 12.0766 13.0914 12.0565C13.192 12.0867 13.3026 12.1068 13.4333 12.1068C13.6645 12.1068 13.8958 12.0263 14.1271 11.8654C14.3483 11.7046 14.5091 11.4733 14.5293 11.2722V11.2622C14.6097 11.2823 14.6801 11.2823 14.7605 11.2823C15.0018 11.2823 15.2431 11.2119 15.4644 11.0611C15.9068 10.7695 15.9771 10.3974 15.9771 10.1561C16.0576 10.1762 16.128 10.1762 16.2084 10.1762C16.4397 10.1762 16.6609 10.1058 16.872 9.97513C17.1435 9.8042 17.3044 9.53272 17.3346 9.22102C17.3547 9.00987 17.2943 8.79872 17.1837 8.61773C17.9177 8.30603 19.5969 7.69269 21.5676 7.24022C21.5777 7.35082 21.5777 7.46142 21.5777 7.58208C21.5777 11.3124 16.8419 14.3389 11 14.3389Z" fill="#0A0080"/>
</svg>
